<?xml version="1.0" encoding="utf-8"?>
<!-- Generator: Adobe Illustrator 26.5.0, SVG Export Plug-In . SVG Version: 6.00 Build 0)  -->
<svg version="1.1" id="Слой_1" xmlns="http://www.w3.org/2000/svg" xmlns:xlink="http://www.w3.org/1999/xlink" x="0px" y="0px"
	 viewBox="0 0 69 12" style="enable-background:new 0 0 69 12;" xml:space="preserve">
<style type="text/css">
	.st0{fill:#C3C3C3;}
	.st1{fill:#3E9CDC;}
</style>
<path class="st0" d="M22.4,5.4c0,0.3,0,0.7-0.1,1C22.2,6.7,22.1,7,22,7.3c-0.1,0.3-0.3,0.5-0.5,0.7c-0.2,0.2-0.4,0.4-0.6,0.6l1.9,2
	h-0.8c-0.1,0-0.2,0-0.3-0.1c-0.1,0-0.2-0.1-0.3-0.2L20.1,9c-0.2,0.1-0.4,0.1-0.6,0.1c-0.2,0-0.4,0.1-0.7,0.1c-0.5,0-1-0.1-1.5-0.3
	c-0.4-0.2-0.8-0.4-1.1-0.8c-0.3-0.3-0.6-0.7-0.7-1.2c-0.2-0.5-0.3-1-0.3-1.5s0.1-1.1,0.3-1.5c0.2-0.5,0.4-0.9,0.7-1.2
	c0.3-0.3,0.7-0.6,1.1-0.8c0.4-0.2,0.9-0.3,1.5-0.3c0.5,0,1,0.1,1.5,0.3c0.5,0.2,0.8,0.4,1.2,0.8C21.7,3,22,3.4,22.2,3.9
	C22.3,4.4,22.4,4.9,22.4,5.4z M21.4,5.4c0-0.5-0.1-0.9-0.2-1.2c-0.1-0.4-0.3-0.7-0.5-0.9c-0.2-0.3-0.5-0.4-0.8-0.6
	c-0.3-0.1-0.7-0.2-1.1-0.2c-0.4,0-0.8,0.1-1.1,0.2S17.1,3,16.9,3.3c-0.2,0.2-0.4,0.6-0.5,0.9c-0.1,0.4-0.2,0.8-0.2,1.2
	c0,0.5,0.1,0.9,0.2,1.2c0.1,0.4,0.3,0.7,0.5,0.9c0.2,0.2,0.5,0.4,0.8,0.6c0.3,0.1,0.7,0.2,1.1,0.2c0.4,0,0.8-0.1,1.1-0.2
	c0.3-0.1,0.6-0.3,0.8-0.6c0.2-0.3,0.4-0.6,0.5-0.9C21.3,6.3,21.4,5.9,21.4,5.4z M24.9,9.1h-1V1.7h1V9.1z M26,1.7h0.8
	c0.1,0,0.2,0,0.2,0.1c0.1,0,0.1,0.1,0.1,0.2l1.5,5.1c0,0.1,0,0.2,0.1,0.3c0,0.1,0,0.2,0.1,0.3c0-0.1,0-0.2,0.1-0.3
	c0-0.1,0.1-0.2,0.1-0.3L30.7,2c0-0.1,0.1-0.1,0.1-0.2c0.1-0.1,0.1-0.1,0.2-0.1h0.3c0.1,0,0.2,0,0.2,0.1c0.1,0,0.1,0.1,0.1,0.2
	l1.7,5.1c0,0.1,0.1,0.2,0.1,0.3c0,0.1,0.1,0.2,0.1,0.3c0-0.1,0-0.2,0.1-0.3c0-0.1,0-0.2,0.1-0.3L35.2,2c0-0.1,0.1-0.1,0.1-0.2
	c0.1,0,0.1-0.1,0.2-0.1h0.8L34,9.1h-0.9l-1.9-5.6c0-0.1-0.1-0.2-0.1-0.4c0,0.1,0,0.1-0.1,0.2c0,0.1,0,0.1,0,0.2l-1.9,5.6h-0.9
	L26,1.7z M38.4,9.1h-1V1.7h1V9.1z M42.2,3.9h0.7c0.1,0,0.1,0,0.2,0.1c0.1,0,0.1,0.1,0.1,0.1l1,3.4c0,0.1,0.1,0.2,0.1,0.4
	c0,0.1,0,0.2,0.1,0.3c0-0.1,0.1-0.2,0.1-0.3c0-0.1,0.1-0.2,0.1-0.4l1.1-3.4c0-0.1,0-0.1,0.1-0.1c0,0,0.1-0.1,0.2-0.1h0.4
	c0.1,0,0.1,0,0.2,0.1c0,0,0.1,0.1,0.1,0.1l1.1,3.4c0,0.1,0.1,0.2,0.1,0.4c0,0.1,0.1,0.2,0.1,0.3c0-0.1,0-0.2,0.1-0.3
	c0-0.1,0.1-0.2,0.1-0.4l1-3.4C49,4,49,4,49.1,3.9c0,0,0.1-0.1,0.2-0.1h0.7l-1.7,5.2h-0.7c-0.1,0-0.2-0.1-0.2-0.2l-1.2-3.5
	c0-0.1,0-0.2-0.1-0.2c0-0.1,0-0.2-0.1-0.2C46,5,46,5.1,46,5.2c0,0.1,0,0.2-0.1,0.2l-1.2,3.5c0,0.1-0.1,0.2-0.2,0.2h-0.7L42.2,3.9z
	 M54.1,9.1c-0.1,0-0.2,0-0.2,0c0,0-0.1-0.1-0.1-0.2l-0.1-0.5c-0.1,0.1-0.3,0.2-0.4,0.3C53.1,8.8,53,8.9,52.8,9
	c-0.1,0.1-0.3,0.1-0.5,0.1c-0.2,0-0.3,0.1-0.5,0.1c-0.2,0-0.4,0-0.6-0.1c-0.2-0.1-0.3-0.1-0.5-0.3c-0.1-0.1-0.2-0.3-0.3-0.4
	c-0.1-0.2-0.1-0.4-0.1-0.6c0-0.2,0.1-0.4,0.2-0.6c0.1-0.2,0.3-0.4,0.6-0.5c0.3-0.1,0.6-0.3,1-0.4c0.4-0.1,0.9-0.2,1.5-0.2V5.8
	c0-0.4-0.1-0.7-0.3-0.9c-0.2-0.2-0.4-0.3-0.8-0.3c-0.2,0-0.4,0-0.6,0.1c-0.2,0.1-0.3,0.1-0.4,0.2c-0.1,0.1-0.2,0.1-0.3,0.2
	c-0.1,0.1-0.2,0.1-0.2,0.1c-0.1,0-0.1,0-0.2,0c0,0-0.1-0.1-0.1-0.1l-0.2-0.3c0.3-0.3,0.6-0.5,0.9-0.6c0.3-0.1,0.7-0.2,1.1-0.2
	c0.3,0,0.6,0,0.8,0.1C53.7,4,53.8,4.2,54,4.3c0.2,0.2,0.3,0.4,0.4,0.6c0.1,0.2,0.1,0.5,0.1,0.8v3.3H54.1z M52.1,8.5
	c0.2,0,0.3,0,0.4,0c0.1,0,0.3-0.1,0.4-0.1c0.1-0.1,0.2-0.1,0.3-0.2c0.1-0.1,0.2-0.2,0.3-0.3V6.8c-0.4,0-0.8,0-1.1,0.1
	C52.2,6.9,52,7,51.8,7.1c-0.2,0.1-0.3,0.2-0.4,0.3c-0.1,0.1-0.1,0.2-0.1,0.4c0,0.1,0,0.3,0.1,0.4c0,0.1,0.1,0.2,0.2,0.2
	c0.1,0.1,0.2,0.1,0.3,0.1C51.9,8.5,52,8.5,52.1,8.5z M56.8,1.5v7.6h-0.9V1.5H56.8z M59.3,1.5v7.6h-0.9V1.5H59.3z M62.9,3.8
	c0.3,0,0.6,0.1,0.9,0.2c0.3,0.1,0.5,0.3,0.7,0.5c0.2,0.2,0.3,0.4,0.5,0.7c0.1,0.3,0.2,0.6,0.2,1c0,0.1,0,0.2,0,0.3s-0.1,0.1-0.2,0.1
	h-3.5c0,0.3,0.1,0.6,0.1,0.9s0.2,0.4,0.3,0.6c0.1,0.2,0.3,0.3,0.5,0.4c0.2,0.1,0.4,0.1,0.7,0.1c0.2,0,0.4,0,0.6-0.1
	c0.2-0.1,0.3-0.1,0.4-0.2c0.1-0.1,0.2-0.1,0.3-0.2C64.4,8,64.5,8,64.5,8c0.1,0,0.1,0,0.2,0.1L65,8.4c-0.1,0.1-0.2,0.3-0.4,0.4
	c-0.2,0.1-0.3,0.2-0.5,0.2c-0.2,0.1-0.4,0.1-0.6,0.1c-0.2,0-0.4,0.1-0.6,0.1c-0.4,0-0.7-0.1-1-0.2c-0.3-0.1-0.6-0.3-0.8-0.5
	c-0.2-0.2-0.4-0.5-0.5-0.9c-0.1-0.3-0.2-0.7-0.2-1.2c0-0.4,0.1-0.7,0.2-1c0.1-0.3,0.3-0.6,0.5-0.8c0.2-0.2,0.5-0.4,0.8-0.5
	C62.2,3.9,62.5,3.8,62.9,3.8z M62.9,4.5c-0.4,0-0.8,0.1-1,0.4c-0.3,0.3-0.4,0.6-0.5,1.1h2.9c0-0.2,0-0.4-0.1-0.6
	C64.1,5.2,64,5,63.9,4.9c-0.1-0.1-0.3-0.2-0.4-0.3C63.3,4.5,63.1,4.5,62.9,4.5z M67.7,9.2c-0.4,0-0.7-0.1-1-0.3
	c-0.2-0.2-0.3-0.6-0.3-1V4.7h-0.6c-0.1,0-0.1,0-0.1,0c0,0-0.1-0.1-0.1-0.2V4.1L66.5,4l0.2-1.6c0-0.1,0-0.1,0.1-0.1
	c0,0,0.1-0.1,0.1-0.1h0.5V4h1.5v0.7h-1.5v3.1c0,0.2,0.1,0.4,0.2,0.5c0.1,0.1,0.2,0.2,0.4,0.2c0.1,0,0.2,0,0.2,0
	c0.1,0,0.1-0.1,0.2-0.1c0.1,0,0.1-0.1,0.1-0.1c0,0,0.1,0,0.1,0c0,0,0.1,0,0.1,0.1L69,8.7c-0.2,0.1-0.3,0.3-0.6,0.4
	C68.2,9.2,68,9.2,67.7,9.2z"/>
<path class="st1" d="M9.7,8.1c0,0.2,0,0.3-0.1,0.3c-0.1,0-0.2-0.1-0.3-0.3C9.1,7.9,9.1,7.7,9.2,7.6c0,0,0.1-0.1,0.1-0.1
	c0,0,0.1,0,0.1,0C9.6,7.6,9.7,7.9,9.7,8.1z M8.6,8.6C8.8,8.8,8.9,9,8.8,9.2c0,0-0.1,0.1-0.1,0.1c-0.1,0-0.1,0-0.2,0
	c-0.1,0-0.3,0-0.4-0.1C7.9,9,7.8,8.7,7.9,8.5C8,8.5,8,8.4,8,8.4c0,0,0.1,0,0.1,0C8.3,8.4,8.5,8.5,8.6,8.6z M8.2,10.5
	c1,0,2.2,0.3,3.4,1.4c0.1,0.1,0.3,0,0.2-0.2c-1.2-1.5-2.4-1.8-3.5-2C6.9,9.4,6.2,8.6,5.7,7.8C5.6,7.7,5.5,7.7,5.5,7.9
	c0,0.3,0,0.6,0.1,0.9c-0.1,0-0.1,0-0.2,0c-0.7,0-1.4-0.2-2-0.6C2.8,7.9,2.4,7.3,2.1,6.7c-0.3-0.6-0.3-1.3-0.2-2s0.5-1.3,1-1.8
	S4,2.1,4.7,2c0.7-0.1,1.4-0.1,2.1,0.2S8,2.9,8.4,3.4C8.8,4,9,4.7,9,5.4c0,0.1,0,0.3,0,0.4c-0.4,0-0.8-0.1-1.1,0
	c-0.1,0-0.1,0.1,0,0.1C9,6,9.8,6.8,10,8c0,0,0,0,0,0c0,0,0,0,0,0c0,0,0,0,0,0c0,0,0,0,0,0c0.6-1,0.9-2.2,0.7-3.3
	c-0.1-1.2-0.7-2.2-1.5-3.1S7.4,0.3,6.2,0.2C5,0,3.8,0.2,2.8,0.8c-1,0.6-1.9,1.5-2.3,2.5C0,4.4-0.1,5.6,0.2,6.7
	c0.3,1.1,1,2.1,1.9,2.8c0.9,0.7,2.1,1.1,3.3,1.1C6.2,10.6,7,10.5,8.2,10.5L8.2,10.5z"/>
</svg>
