<?xml version="1.0" encoding="utf-8"?>
<!-- Generator: Adobe Illustrator 26.5.0, SVG Export Plug-In . SVG Version: 6.00 Build 0)  -->
<svg version="1.1" id="Слой_1" xmlns="http://www.w3.org/2000/svg" xmlns:xlink="http://www.w3.org/1999/xlink" x="0px" y="0px"
	 viewBox="0 0 100 100" style="enable-background:new 0 0 100 100;" xml:space="preserve">
<style type="text/css">
	.st0{fill:#3E9CDC;stroke:#286690;stroke-width:5;}
	.st1{fill:#FFFFFF;}
</style>
<circle class="st0" cx="50" cy="50" r="47.5"/>
<path class="st1" d="M60.3,57c0,1.4-1.2,2.6-2.6,2.6c-1.4,0-2.6-1.2-2.6-2.6c0-1.4,1.2-2.6,2.6-2.6C59.1,54.5,60.3,55.6,60.3,57z
	 M44.8,41.6c0,1.4-1.2,2.6-2.6,2.6s-2.6-1.2-2.6-2.6s1.2-2.6,2.6-2.6S44.8,40.2,44.8,41.6z M65.4,57c0-4.3-3.5-7.7-7.7-7.7
	S50,52.8,50,57c0,4.3,3.5,7.7,7.7,7.7S65.4,61.3,65.4,57z M63.5,35.2c0-0.7-0.6-1.3-1.3-1.3H59c-0.4,0-0.8,0.2-1,0.5L36.7,62.7
	c-0.2,0.2-0.3,0.5-0.3,0.8c0,0.7,0.6,1.3,1.3,1.3H41c0.4,0,0.8-0.2,1-0.5L63.2,36C63.4,35.7,63.5,35.5,63.5,35.2z M50,41.6
	c0-4.3-3.5-7.7-7.7-7.7c-4.3,0-7.7,3.5-7.7,7.7c0,4.3,3.5,7.7,7.7,7.7C46.5,49.3,50,45.9,50,41.6z"/>
</svg>
