<?xml version="1.0" encoding="utf-8"?>
<!-- Generator: Adobe Illustrator 26.5.0, SVG Export Plug-In . SVG Version: 6.00 Build 0)  -->
<svg version="1.1" id="Слой_1" xmlns="http://www.w3.org/2000/svg" xmlns:xlink="http://www.w3.org/1999/xlink" x="0px" y="0px"
	 viewBox="0 0 100 100" style="enable-background:new 0 0 100 100;" xml:space="preserve">
<style type="text/css">
	.st0{fill:#3E9CDC;stroke:#286690;stroke-width:5;}
	.st1{fill:#FFFFFF;}
	.st2{fill-rule:evenodd;clip-rule:evenodd;fill:#FFFFFF;}
</style>
<circle class="st0" cx="50" cy="50" r="47.5"/>
<path class="st1" d="M43.3,49.1v-1.3c0-0.4,0.3-0.6,0.6-0.6H58c0.4,0,0.6,0.3,0.6,0.6v1.3c0,0.4-0.3,0.6-0.6,0.6H43.9
	C43.5,49.7,43.3,49.5,43.3,49.1z"/>
<path class="st1" d="M43.9,52.3H58c0.4,0,0.6,0.3,0.6,0.6v1.3c0,0.4-0.3,0.6-0.6,0.6H43.9c-0.4,0-0.6-0.3-0.6-0.6V53
	C43.3,52.6,43.5,52.3,43.9,52.3z"/>
<path class="st1" d="M43.9,57.5H58c0.4,0,0.6,0.3,0.6,0.6v1.3c0,0.4-0.3,0.6-0.6,0.6H43.9c-0.4,0-0.6-0.3-0.6-0.6v-1.3
	C43.3,57.7,43.5,57.5,43.9,57.5z"/>
<path class="st2" d="M35.5,41c-4.1,0-7.4-3.3-7.4-7.4c0-4.1,3.3-7.4,7.4-7.4c3.4,0,6.3,2.3,7.2,5.5h12.8c1.1,0,2.6,0.6,3.3,1.4
	l6.3,6.3c0.7,0.7,1.4,2.2,1.4,3.3v23.1c0,1.1-0.9,1.9-1.9,1.9h-27c-1.1,0-1.9-0.9-1.9-1.9V41z M38.1,40.6c2.6-1,4.5-3.4,4.8-6.3
	h10.6v8.4c0,1.1,0.9,1.9,1.9,1.9h8.4v20.6H38.1V40.6z M56.9,34.9c-0.1-0.1-0.5-0.3-0.8-0.4V42h7.6c-0.1-0.3-0.3-0.7-0.4-0.8
	L56.9,34.9z M36.5,34.6h4v-2h-4v-4h-2v4h-4v2h4v4h2V34.6z"/>
</svg>
