<?xml version="1.0" encoding="utf-8"?>
<!-- Generator: Adobe Illustrator 26.5.0, SVG Export Plug-In . SVG Version: 6.00 Build 0)  -->
<svg version="1.1" id="Слой_1" xmlns="http://www.w3.org/2000/svg" xmlns:xlink="http://www.w3.org/1999/xlink" x="0px" y="0px"
	 viewBox="0 0 100 100" style="enable-background:new 0 0 100 100;" xml:space="preserve">
<style type="text/css">
	.st0{fill:#3E9CDC;stroke:#286690;stroke-width:5;}
	.st1{fill:#FFFFFF;}
</style>
<circle class="st0" cx="50" cy="50" r="47.5"/>
<path class="st1" d="M65.4,60.9c0,0.3-0.3,0.6-0.6,0.6H35.2c-0.3,0-0.6-0.3-0.6-0.6V45.5c0.4,0.5,0.9,0.9,1.4,1.3
	c2.9,2.2,5.8,4.5,8.6,6.8c1.5,1.3,3.4,2.8,5.5,2.8h0h0c2.1,0,4-1.5,5.5-2.8c2.8-2.3,5.7-4.6,8.6-6.8c0.5-0.4,1-0.8,1.4-1.3V60.9z
	 M65.4,39.8c0,1.7-1.6,3.9-3,5c-2.7,2.1-5.4,4.2-8.1,6.4c-1.1,0.9-3,2.7-4.4,2.7h0h0c-1.4,0-3.3-1.8-4.4-2.7
	c-2.7-2.1-5.4-4.3-8.1-6.4c-1.8-1.4-3-3.4-3-5.7c0-0.3,0.3-0.6,0.6-0.6h29.6C65.5,38.4,65.4,39.3,65.4,39.8z M68,39.1
	c0-1.8-1.4-3.2-3.2-3.2H35.2c-1.8,0-3.2,1.4-3.2,3.2v21.9c0,1.8,1.4,3.2,3.2,3.2h29.6c1.8,0,3.2-1.4,3.2-3.2V39.1z"/>
</svg>
