<?xml version="1.0" encoding="utf-8"?>
<!-- Generator: Adobe Illustrator 26.5.0, SVG Export Plug-In . SVG Version: 6.00 Build 0)  -->
<svg version="1.1" id="Слой_1" xmlns="http://www.w3.org/2000/svg" xmlns:xlink="http://www.w3.org/1999/xlink" x="0px" y="0px"
	 viewBox="0 0 100 100" style="enable-background:new 0 0 100 100;" xml:space="preserve">
<style type="text/css">
	.st0{fill:#3E9CDC;stroke:#286690;stroke-width:5;}
	.st1{fill:#FFFFFF;}
</style>
<circle class="st0" cx="50" cy="50" r="47.5"/>
<path class="st1" d="M56.9,45.6c0,5-4,9-9,9c-5,0-9-4-9-9c0-5,4-9,9-9C52.9,36.6,56.9,40.7,56.9,45.6z M67.2,62.3
	c0-0.7-0.3-1.3-0.7-1.8l-6.9-6.9c1.6-2.4,2.5-5.2,2.5-8c0-7.8-6.3-14.1-14.1-14.1c-7.8,0-14.1,6.3-14.1,14.1
	c0,7.8,6.3,14.1,14.1,14.1c2.9,0,5.7-0.9,8-2.5l6.9,6.9c0.5,0.5,1.1,0.8,1.8,0.8C66,64.9,67.2,63.8,67.2,62.3z"/>
</svg>
