<?xml version="1.0" encoding="utf-8"?>
<!-- Generator: Adobe Illustrator 26.5.0, SVG Export Plug-In . SVG Version: 6.00 Build 0)  -->
<svg version="1.1" id="Слой_1" xmlns="http://www.w3.org/2000/svg" xmlns:xlink="http://www.w3.org/1999/xlink" x="0px" y="0px"
	 viewBox="0 0 100 100" style="enable-background:new 0 0 100 100;" xml:space="preserve">
<style type="text/css">
	.st0{fill:#3E9CDC;stroke:#286690;stroke-width:5;}
	.st1{fill:#FFFFFF;}
</style>
<circle class="st0" cx="50" cy="50" r="47.5"/>
<path class="st1" d="M46.1,54.5v-1.9h2.6v-5.8h0c-0.3,0.5-0.6,0.7-1.1,1.1L46,46.3l3-2.8h2.3v9h2.6v1.9H46.1z M56.4,49.3
	c0-3.7-2.2-8.4-6.4-8.4c-4.2,0-6.4,4.7-6.4,8.4c0,3.7,2.2,8.4,6.4,8.4C54.2,57.7,56.4,53,56.4,49.3z M66.7,54.5
	c-2.8,0-5.1,2.3-5.1,5.1H38.4c0-2.8-2.3-5.1-5.1-5.1V44.2c2.8,0,5.1-2.3,5.1-5.1h23.1c0,2.8,2.3,5.1,5.1,5.1V54.5z M69.3,37.8
	c0-0.7-0.6-1.3-1.3-1.3H32c-0.7,0-1.3,0.6-1.3,1.3v23.1c0,0.7,0.6,1.3,1.3,1.3h36c0.7,0,1.3-0.6,1.3-1.3V37.8z"/>
</svg>
