<?xml version="1.0" encoding="utf-8"?>
<!-- Generator: Adobe Illustrator 26.5.0, SVG Export Plug-In . SVG Version: 6.00 Build 0)  -->
<svg version="1.1" id="Слой_1" xmlns="http://www.w3.org/2000/svg" xmlns:xlink="http://www.w3.org/1999/xlink" x="0px" y="0px"
	 viewBox="0 0 71 13" style="enable-background:new 0 0 71 13;" xml:space="preserve">
<style type="text/css">
	.st0{fill:#C3C3C3;}
	.st1{fill:#3E9CDC;}
</style>
<path class="st0" d="M17.4,3.1h0.8c0.1,0,0.2,0,0.2,0.1c0.1,0,0.1,0.1,0.1,0.2l1.5,5c0,0.1,0,0.2,0.1,0.3c0,0.1,0,0.2,0.1,0.3
	c0-0.1,0-0.2,0.1-0.3c0-0.1,0.1-0.2,0.1-0.3l1.7-5c0-0.1,0.1-0.1,0.1-0.2c0.1,0,0.1-0.1,0.2-0.1h0.3c0.1,0,0.2,0,0.2,0.1
	c0.1,0,0.1,0.1,0.1,0.2l1.7,5c0,0.1,0.1,0.2,0.1,0.3c0,0.1,0,0.2,0.1,0.3c0-0.1,0-0.2,0.1-0.3c0-0.1,0-0.2,0.1-0.3l1.5-5
	c0-0.1,0.1-0.1,0.1-0.2c0.1,0,0.1-0.1,0.2-0.1h0.8l-2.2,7.2h-0.9l-1.8-5.5c0-0.1-0.1-0.2-0.1-0.4c0,0.1,0,0.1,0,0.2
	c0,0.1,0,0.1,0,0.2l-1.8,5.5h-0.9L17.4,3.1z M29.8,5.1c0.3,0,0.6,0.1,0.8,0.2c0.3,0.1,0.5,0.2,0.7,0.4c0.2,0.2,0.3,0.4,0.4,0.7
	c0.1,0.3,0.2,0.6,0.2,1c0,0.1,0,0.2,0,0.3c0,0-0.1,0.1-0.2,0.1h-3.4c0,0.3,0,0.6,0.1,0.8s0.2,0.4,0.3,0.6c0.1,0.2,0.3,0.3,0.5,0.4
	c0.2,0.1,0.4,0.1,0.6,0.1c0.2,0,0.4,0,0.6-0.1c0.2-0.1,0.3-0.1,0.4-0.2c0.1-0.1,0.2-0.1,0.3-0.2c0.1-0.1,0.1-0.1,0.2-0.1
	c0.1,0,0.1,0,0.2,0.1l0.2,0.3c-0.1,0.1-0.2,0.2-0.4,0.3c-0.2,0.1-0.3,0.2-0.5,0.2c-0.2,0.1-0.4,0.1-0.5,0.1c-0.2,0-0.4,0-0.6,0
	c-0.3,0-0.7-0.1-1-0.2c-0.3-0.1-0.5-0.3-0.8-0.5c-0.2-0.2-0.4-0.5-0.5-0.8s-0.2-0.7-0.2-1.2c0-0.4,0.1-0.7,0.2-1
	c0.1-0.3,0.3-0.6,0.5-0.8c0.2-0.2,0.5-0.4,0.7-0.5C29.1,5.2,29.4,5.1,29.8,5.1z M29.8,5.8c-0.4,0-0.8,0.1-1,0.4
	c-0.2,0.2-0.4,0.6-0.5,1h2.8c0-0.2,0-0.4-0.1-0.6c-0.1-0.2-0.1-0.3-0.3-0.4c-0.1-0.1-0.2-0.2-0.4-0.3C30.2,5.8,30,5.8,29.8,5.8z
	 M33,10.3V2.9h0.9v3c0.2-0.2,0.4-0.4,0.7-0.6c0.3-0.1,0.6-0.2,0.9-0.2c0.3,0,0.6,0.1,0.8,0.2c0.2,0.1,0.4,0.3,0.6,0.5
	c0.2,0.2,0.3,0.5,0.4,0.8c0.1,0.3,0.1,0.7,0.1,1c0,0.4,0,0.8-0.1,1.1c-0.1,0.3-0.2,0.6-0.4,0.9c-0.2,0.2-0.4,0.4-0.7,0.6
	c-0.3,0.1-0.6,0.2-0.9,0.2c-0.3,0-0.6-0.1-0.8-0.2C34.2,10,34,9.8,33.9,9.6l0,0.5c0,0.1-0.1,0.2-0.2,0.2H33z M35.3,5.8
	c-0.3,0-0.5,0.1-0.8,0.2c-0.2,0.1-0.4,0.3-0.6,0.6V9c0.2,0.2,0.3,0.4,0.5,0.5c0.2,0.1,0.4,0.1,0.6,0.1c0.5,0,0.8-0.2,1.1-0.5
	c0.3-0.3,0.4-0.8,0.4-1.5c0-0.6-0.1-1.1-0.3-1.4C36,6,35.7,5.8,35.3,5.8z M44.9,7.7c0,0.1,0.1,0.2,0.1,0.3c0,0.1,0.1,0.2,0.1,0.3
	c0-0.1,0.1-0.2,0.1-0.3c0-0.1,0.1-0.2,0.1-0.3l2.4-4.4c0-0.1,0.1-0.1,0.1-0.1c0,0,0.1,0,0.2,0h0.7v7.2H48V5c0-0.1,0-0.1,0-0.2
	c0-0.1,0-0.2,0-0.2L45.5,9c-0.1,0.1-0.2,0.2-0.3,0.2H45c-0.2,0-0.3-0.1-0.3-0.2l-2.5-4.5c0,0.1,0,0.2,0,0.3c0,0.1,0,0.2,0,0.2v5.3
	h-0.8V3.1h0.7c0.1,0,0.2,0,0.2,0c0,0,0.1,0.1,0.1,0.1L44.9,7.7z M52.4,5.1c0.4,0,0.7,0.1,1,0.2c0.3,0.1,0.5,0.3,0.8,0.5
	s0.4,0.5,0.5,0.8c0.1,0.3,0.2,0.7,0.2,1.1c0,0.4-0.1,0.8-0.2,1.1c-0.1,0.3-0.3,0.6-0.5,0.8s-0.5,0.4-0.8,0.5c-0.3,0.1-0.6,0.2-1,0.2
	c-0.4,0-0.7-0.1-1-0.2c-0.3-0.1-0.5-0.3-0.8-0.5s-0.4-0.5-0.5-0.8C50,8.5,50,8.1,50,7.7C50,7.3,50,7,50.1,6.7
	c0.1-0.3,0.3-0.6,0.5-0.8s0.5-0.4,0.8-0.5C51.7,5.2,52,5.1,52.4,5.1z M52.4,9.6c0.5,0,0.9-0.2,1.1-0.5c0.2-0.3,0.4-0.8,0.4-1.4
	c0-0.6-0.1-1.1-0.4-1.4c-0.2-0.3-0.6-0.5-1.1-0.5c-0.3,0-0.5,0-0.7,0.1c-0.2,0.1-0.3,0.2-0.5,0.4C51.1,6.5,51,6.7,51,6.9
	c-0.1,0.2-0.1,0.5-0.1,0.8c0,0.6,0.1,1.1,0.4,1.4C51.5,9.5,51.9,9.6,52.4,9.6z M55.9,10.3V5.2h0.5c0.1,0,0.2,0.1,0.2,0.2l0.1,0.5
	c0.2-0.2,0.5-0.4,0.7-0.6c0.3-0.1,0.6-0.2,0.9-0.2c0.3,0,0.5,0,0.7,0.1c0.2,0.1,0.4,0.2,0.5,0.4C59.8,5.8,60,6,60,6.3
	c0.1,0.2,0.1,0.5,0.1,0.8v3.2h-0.9V7c0-0.4-0.1-0.7-0.3-0.9c-0.2-0.2-0.4-0.3-0.8-0.3c-0.3,0-0.5,0.1-0.7,0.2
	c-0.2,0.1-0.4,0.3-0.6,0.5v3.7H55.9z M63.6,5.1c0.3,0,0.6,0.1,0.8,0.2c0.3,0.1,0.5,0.2,0.7,0.4c0.2,0.2,0.3,0.4,0.4,0.7
	c0.1,0.3,0.2,0.6,0.2,1c0,0.1,0,0.2,0,0.3s-0.1,0.1-0.2,0.1h-3.4c0,0.3,0,0.6,0.1,0.8c0.1,0.2,0.2,0.4,0.3,0.6
	c0.1,0.2,0.3,0.3,0.5,0.4c0.2,0.1,0.4,0.1,0.6,0.1c0.2,0,0.4,0,0.6-0.1c0.2-0.1,0.3-0.1,0.4-0.2c0.1-0.1,0.2-0.1,0.3-0.2
	c0.1-0.1,0.1-0.1,0.2-0.1c0.1,0,0.1,0,0.2,0.1l0.2,0.3c-0.1,0.1-0.2,0.2-0.4,0.3c-0.2,0.1-0.3,0.2-0.5,0.2c-0.2,0.1-0.4,0.1-0.5,0.1
	c-0.2,0-0.4,0-0.6,0c-0.3,0-0.7-0.1-1-0.2c-0.3-0.1-0.5-0.3-0.8-0.5c-0.2-0.2-0.4-0.5-0.5-0.8s-0.2-0.7-0.2-1.2c0-0.4,0.1-0.7,0.2-1
	c0.1-0.3,0.3-0.6,0.5-0.8c0.2-0.2,0.5-0.4,0.7-0.5C62.9,5.2,63.2,5.1,63.6,5.1z M63.6,5.8c-0.4,0-0.8,0.1-1,0.4
	c-0.2,0.2-0.4,0.6-0.5,1h2.8c0-0.2,0-0.4-0.1-0.6c-0.1-0.2-0.1-0.3-0.3-0.4c-0.1-0.1-0.2-0.2-0.4-0.3C64,5.8,63.8,5.8,63.6,5.8z
	 M68.2,11.7c0,0.1-0.1,0.1-0.1,0.2c0,0-0.1,0.1-0.2,0.1h-0.7l0.9-2L66,5.2h0.8c0.1,0,0.1,0,0.2,0.1c0,0,0.1,0.1,0.1,0.1l1.4,3.2
	c0,0.1,0.1,0.2,0.1,0.2c0,0.1,0,0.1,0.1,0.2c0-0.1,0.1-0.3,0.1-0.4L70,5.4c0-0.1,0.1-0.1,0.1-0.1c0,0,0.1-0.1,0.2-0.1H71L68.2,11.7z
	"/>
<path class="st1" d="M6.5,0.1c1,0,2,0.2,2.9,0.7C9.5,0.9,9.6,0.9,9.8,1L9.2,1.5L8.3,0.6L6.7,2L5.8,1L3,3.5l1.8,2L4.1,6.1l1.8,2
	L5.2,8.7l2.6,2.8l1.5-1.4l1.3,1.5c-0.3,0.2-0.5,0.4-0.9,0.6c-0.9,0.5-2,0.8-3.2,0.8C2.9,13,0,10.1,0,6.6C0,3,2.9,0.1,6.5,0.1z
	 M5.3,6.2l1.6-1.4l1.4,1.5L6.7,7.7L5.3,6.2z M6.4,8.8L8,7.4L9.4,9l-1.6,1.4L6.4,8.8z M4.2,3.6l1.6-1.4l1.4,1.5L5.6,5.1L4.2,3.6z
	 M7,2.8l1.2-1l1,1.1L8.1,4L7,2.8z M9.1,7.5l1.2-1l1,1.2l-1.2,1L9.1,7.5z M10.1,9.9l1.2-1l1,1.1l-1.2,1L10.1,9.9z M10.6,4.6l0.8-0.7
	l0.7,0.8l-0.8,0.7L10.6,4.6z M9.6,2.3l0.8-0.7l0.7,0.8l-0.8,0.7L9.6,2.3z M11.6,6.8l0.8-0.7l0.7,0.8l-0.8,0.7L11.6,6.8z M8.1,5.1
	l1.2-1l1,1.1l-1.2,1L8.1,5.1z"/>
</svg>
