<?xml version="1.0" encoding="utf-8"?>
<!-- Generator: Adobe Illustrator 26.5.0, SVG Export Plug-In . SVG Version: 6.00 Build 0)  -->
<svg version="1.1" id="Слой_1" xmlns="http://www.w3.org/2000/svg" xmlns:xlink="http://www.w3.org/1999/xlink" x="0px" y="0px"
	 viewBox="0 0 85 13" style="enable-background:new 0 0 85 13;" xml:space="preserve">
<style type="text/css">
	.st0{fill:#C3C3C3;}
	.st1{fill-rule:evenodd;clip-rule:evenodd;fill:#3E9CDC;}
	.st2{fill-rule:evenodd;clip-rule:evenodd;fill:#231F20;}
	.st3{fill-rule:evenodd;clip-rule:evenodd;fill-opacity:0.2;}
</style>
<path class="st0" d="M19.3,7.1v3h-1v-3l-2.8-4.6h0.9c0.1,0,0.2,0,0.2,0.1c0.1,0,0.1,0.1,0.1,0.2l1.8,3c0.1,0.1,0.1,0.2,0.2,0.4
	c0.1,0.1,0.1,0.2,0.1,0.3c0-0.1,0.1-0.2,0.1-0.3c0-0.1,0.1-0.2,0.2-0.4l1.7-3c0-0.1,0.1-0.1,0.1-0.2c0.1,0,0.1-0.1,0.2-0.1h0.9
	L19.3,7.1z M25.1,10.1c-0.1,0-0.2,0-0.2,0c0,0-0.1-0.1-0.1-0.2l-0.1-0.5c-0.1,0.1-0.3,0.2-0.4,0.3C24.2,9.8,24,9.9,23.9,10
	c-0.1,0.1-0.3,0.1-0.5,0.2c-0.2,0-0.4,0.1-0.6,0.1c-0.2,0-0.4,0-0.6-0.1c-0.2-0.1-0.3-0.1-0.5-0.3c-0.1-0.1-0.2-0.3-0.3-0.4
	c-0.1-0.2-0.1-0.4-0.1-0.6c0-0.2,0.1-0.4,0.2-0.6C21.6,8,21.8,7.8,22,7.6c0.3-0.2,0.6-0.3,1-0.4c0.4-0.1,0.9-0.2,1.6-0.2V6.7
	c0-0.4-0.1-0.7-0.3-1c-0.2-0.2-0.4-0.3-0.8-0.3c-0.2,0-0.4,0-0.6,0.1c-0.2,0.1-0.3,0.1-0.4,0.2c-0.1,0.1-0.2,0.1-0.3,0.2
	C22.2,5.9,22.1,6,22,6c-0.1,0-0.1,0-0.2,0c0,0-0.1-0.1-0.1-0.1l-0.2-0.3c0.3-0.3,0.6-0.5,1-0.6c0.3-0.1,0.7-0.2,1.1-0.2
	c0.3,0,0.6,0,0.8,0.1s0.4,0.2,0.6,0.4c0.2,0.2,0.3,0.4,0.4,0.6c0.1,0.3,0.1,0.5,0.1,0.8v3.5H25.1z M23.1,9.5c0.2,0,0.3,0,0.5,0
	c0.1,0,0.3-0.1,0.4-0.1c0.1-0.1,0.2-0.1,0.4-0.2c0.1-0.1,0.2-0.2,0.3-0.3V7.7c-0.4,0-0.8,0-1.1,0.1C23.2,7.8,23,7.9,22.8,8
	c-0.2,0.1-0.3,0.2-0.4,0.3c-0.1,0.1-0.1,0.3-0.1,0.4c0,0.1,0,0.3,0.1,0.4c0,0.1,0.1,0.2,0.2,0.3c0.1,0.1,0.2,0.1,0.3,0.1
	C22.9,9.5,23,9.5,23.1,9.5z M27,10.1V4.7h0.6c0.1,0,0.2,0.1,0.3,0.2l0.1,0.6c0.2-0.3,0.5-0.5,0.8-0.6c0.3-0.2,0.6-0.2,1-0.2
	c0.3,0,0.6,0,0.8,0.1c0.2,0.1,0.4,0.2,0.6,0.4c0.2,0.2,0.3,0.4,0.3,0.6c0.1,0.3,0.1,0.5,0.1,0.8v3.4h-1V6.7c0-0.4-0.1-0.7-0.3-1
	c-0.2-0.2-0.5-0.3-0.8-0.3c-0.3,0-0.6,0.1-0.8,0.2c-0.2,0.1-0.5,0.3-0.7,0.6v4H27z M36.9,10.1c-0.1,0-0.2-0.1-0.3-0.2l-0.1-0.7
	c-0.2,0.3-0.5,0.5-0.8,0.7c-0.3,0.2-0.6,0.3-1,0.3c-0.3,0-0.6-0.1-0.8-0.2c-0.3-0.1-0.5-0.3-0.6-0.5S32.9,9,32.8,8.6
	c-0.1-0.3-0.1-0.7-0.1-1.2c0-0.4,0.1-0.8,0.2-1.1c0.1-0.3,0.3-0.6,0.5-0.9S33.7,5,34,4.8c0.3-0.1,0.6-0.2,1-0.2
	c0.3,0,0.6,0.1,0.8,0.2c0.2,0.1,0.5,0.3,0.6,0.5v-3h1v7.9H36.9z M35,9.4c0.3,0,0.6-0.1,0.8-0.2c0.2-0.1,0.5-0.3,0.6-0.6V6
	c-0.2-0.2-0.4-0.4-0.6-0.5s-0.4-0.1-0.7-0.1c-0.5,0-0.9,0.2-1.2,0.5c-0.3,0.4-0.4,0.9-0.4,1.5c0,0.4,0,0.7,0.1,0.9
	C33.8,8.6,33.9,8.8,34,9c0.1,0.2,0.3,0.3,0.4,0.4S34.8,9.4,35,9.4z M41.2,4.6c0.3,0,0.6,0.1,0.9,0.2c0.3,0.1,0.5,0.3,0.7,0.5
	C43,5.5,43.1,5.7,43.3,6c0.1,0.3,0.2,0.6,0.2,1c0,0.1,0,0.2,0,0.3c0,0-0.1,0.1-0.2,0.1h-3.6c0,0.3,0.1,0.6,0.1,0.9
	c0.1,0.3,0.2,0.5,0.4,0.6c0.1,0.2,0.3,0.3,0.5,0.4c0.2,0.1,0.4,0.1,0.7,0.1c0.2,0,0.4,0,0.6-0.1c0.2-0.1,0.3-0.1,0.4-0.2
	c0.1-0.1,0.2-0.1,0.3-0.2c0.1-0.1,0.2-0.1,0.2-0.1C43,8.9,43,9,43.1,9l0.3,0.3c-0.1,0.1-0.3,0.3-0.4,0.4c-0.2,0.1-0.3,0.2-0.5,0.3
	c-0.2,0.1-0.4,0.1-0.6,0.1c-0.2,0-0.4,0.1-0.6,0.1c-0.4,0-0.7-0.1-1-0.2c-0.3-0.1-0.6-0.3-0.8-0.6c-0.2-0.2-0.4-0.5-0.5-0.9
	c-0.1-0.4-0.2-0.8-0.2-1.2c0-0.4,0.1-0.7,0.2-1.1c0.1-0.3,0.3-0.6,0.5-0.8c0.2-0.2,0.5-0.4,0.8-0.6C40.4,4.7,40.8,4.6,41.2,4.6z
	 M41.2,5.3c-0.5,0-0.8,0.1-1.1,0.4c-0.3,0.3-0.4,0.6-0.5,1.1h3c0-0.2,0-0.4-0.1-0.6c-0.1-0.2-0.2-0.3-0.3-0.5
	c-0.1-0.1-0.3-0.2-0.4-0.3C41.6,5.4,41.4,5.3,41.2,5.3z M45.8,7.3L44,4.7h0.9c0.1,0,0.1,0,0.2,0c0,0,0.1,0.1,0.1,0.1l1.3,2
	c0-0.1,0.1-0.2,0.1-0.3l1.2-1.7c0,0,0.1-0.1,0.1-0.1c0,0,0.1,0,0.1,0h0.9l-1.8,2.6l1.9,2.8h-0.9c-0.1,0-0.1,0-0.2-0.1
	c0,0-0.1-0.1-0.1-0.1l-1.4-2.1c0,0.1-0.1,0.2-0.1,0.3L45,9.9c0,0-0.1,0.1-0.1,0.1c0,0-0.1,0.1-0.2,0.1h-0.8L45.8,7.3z M56.6,7.4
	c0,0.1,0.1,0.2,0.1,0.3c0,0.1,0.1,0.2,0.1,0.3c0-0.1,0.1-0.2,0.1-0.3C57,7.5,57,7.4,57,7.3l2.6-4.7c0-0.1,0.1-0.1,0.1-0.1
	c0.1,0,0.1,0,0.2,0h0.8v7.7h-0.9V4.5c0-0.1,0-0.2,0-0.2c0-0.1,0-0.2,0-0.3l-2.6,4.8C57.2,8.9,57,9,56.9,9h-0.1
	c-0.2,0-0.3-0.1-0.4-0.2L53.7,4c0,0.1,0,0.2,0,0.3c0,0.1,0,0.2,0,0.2v5.6h-0.9V2.5h0.8c0.1,0,0.2,0,0.2,0c0,0,0.1,0.1,0.1,0.1
	L56.6,7.4z M64.6,4.6c0.4,0,0.8,0.1,1.1,0.2C66,5,66.3,5.1,66.5,5.4c0.2,0.2,0.4,0.5,0.5,0.9c0.1,0.3,0.2,0.7,0.2,1.1
	c0,0.4-0.1,0.8-0.2,1.2c-0.1,0.3-0.3,0.6-0.5,0.9C66.3,9.7,66,9.9,65.7,10c-0.3,0.1-0.7,0.2-1.1,0.2c-0.4,0-0.8-0.1-1.1-0.2
	c-0.3-0.1-0.6-0.3-0.8-0.6c-0.2-0.2-0.4-0.5-0.5-0.9C62.1,8.2,62,7.8,62,7.4c0-0.4,0.1-0.8,0.2-1.1c0.1-0.3,0.3-0.6,0.5-0.9
	s0.5-0.4,0.8-0.6C63.9,4.7,64.2,4.6,64.6,4.6z M64.6,9.5c0.5,0,0.9-0.2,1.2-0.5c0.3-0.4,0.4-0.9,0.4-1.5c0-0.6-0.1-1.1-0.4-1.5
	c-0.3-0.4-0.7-0.5-1.2-0.5c-0.3,0-0.5,0-0.7,0.1c-0.2,0.1-0.4,0.2-0.5,0.4c-0.1,0.2-0.2,0.4-0.3,0.6C63,6.8,63,7.1,63,7.4
	c0,0.6,0.1,1.1,0.4,1.5C63.7,9.3,64.1,9.5,64.6,9.5z M68.4,10.1V4.7H69c0.1,0,0.2,0.1,0.3,0.2l0.1,0.6c0.2-0.3,0.5-0.5,0.8-0.6
	c0.3-0.2,0.6-0.2,1-0.2c0.3,0,0.6,0,0.8,0.1c0.2,0.1,0.4,0.2,0.6,0.4c0.2,0.2,0.3,0.4,0.3,0.6c0.1,0.3,0.1,0.5,0.1,0.8v3.4h-1V6.7
	c0-0.4-0.1-0.7-0.3-1c-0.2-0.2-0.5-0.3-0.8-0.3c-0.3,0-0.6,0.1-0.8,0.2c-0.2,0.1-0.5,0.3-0.7,0.6v4H68.4z M76.6,4.6
	c0.3,0,0.6,0.1,0.9,0.2c0.3,0.1,0.5,0.3,0.7,0.5c0.2,0.2,0.4,0.5,0.5,0.8c0.1,0.3,0.2,0.6,0.2,1c0,0.1,0,0.2,0,0.3s-0.1,0.1-0.2,0.1
	H75c0,0.3,0.1,0.6,0.1,0.9c0.1,0.3,0.2,0.5,0.4,0.6c0.1,0.2,0.3,0.3,0.5,0.4c0.2,0.1,0.4,0.1,0.7,0.1c0.2,0,0.4,0,0.6-0.1
	c0.2-0.1,0.3-0.1,0.4-0.2C77.9,9.1,78,9.1,78.1,9c0.1-0.1,0.2-0.1,0.2-0.1c0.1,0,0.1,0,0.2,0.1l0.3,0.3c-0.1,0.1-0.3,0.3-0.4,0.4
	C78.2,9.8,78,9.9,77.8,10c-0.2,0.1-0.4,0.1-0.6,0.1c-0.2,0-0.4,0.1-0.6,0.1c-0.4,0-0.7-0.1-1-0.2c-0.3-0.1-0.6-0.3-0.8-0.6
	c-0.2-0.2-0.4-0.5-0.5-0.9C74.1,8.2,74,7.8,74,7.3c0-0.4,0.1-0.7,0.2-1.1c0.1-0.3,0.3-0.6,0.5-0.8c0.2-0.2,0.5-0.4,0.8-0.6
	C75.8,4.7,76.2,4.6,76.6,4.6z M76.6,5.3c-0.5,0-0.8,0.1-1.1,0.4C75.2,6,75.1,6.4,75,6.8h3c0-0.2,0-0.4-0.1-0.6
	c-0.1-0.2-0.2-0.3-0.3-0.5c-0.1-0.1-0.3-0.2-0.4-0.3C77,5.4,76.8,5.3,76.6,5.3z M81.5,11.7c0,0.1-0.1,0.1-0.1,0.2
	c0,0-0.1,0.1-0.2,0.1h-0.7l1-2.1l-2.2-5.1H80c0.1,0,0.1,0,0.2,0.1c0,0,0.1,0.1,0.1,0.1l1.4,3.4c0,0.1,0.1,0.2,0.1,0.2
	c0,0.1,0,0.2,0.1,0.2c0-0.2,0.1-0.3,0.2-0.5l1.4-3.4c0-0.1,0.1-0.1,0.1-0.1c0.1,0,0.1-0.1,0.2-0.1h0.8L81.5,11.7z"/>
<path class="st1" d="M0,6.5c0-0.7,0.1-1.2,1.6-2.3c1.2-0.9,5.3-4.1,5.3-4.1v5.3h3V13H1c-0.5,0-1-0.4-1-0.9L0,6.5L0,6.5z"/>
<path class="st2" d="M4.8,4.3C5.1,3.9,5.5,3.8,5.8,4C6.1,4.2,6,4.8,5.7,5.2C5.4,5.6,4.9,5.7,4.6,5.5C4.4,5.3,4.4,4.7,4.8,4.3
	L4.8,4.3z"/>
<path class="st3" d="M6.9,5.4v2.7L2,11.5l6.2-2v-4H6.9z"/>
</svg>
